HIERARCHY
ROOT Hips
{
	OFFSET 0.00 0.00 0.00
	CHANNELS 6 Xposition Yposition Zposition Yrotation Xrotation Zrotation
	JOINT Spine
	{
		OFFSET	0.0000	9.2263	1.5771
		CHANNELS 3 Xrotation Yrotation Zrotation
		JOINT Spine1
		{
			OFFSET	0.0000	16.2540	-0.1656
			CHANNELS 3 Xrotation Yrotation Zrotation
			JOINT Spine2
			{
				OFFSET	0.0000	13.6396	-1.2923
				CHANNELS 3 Xrotation Yrotation Zrotation
				JOINT Neck
				{
					OFFSET	0.0000	13.8774	-4.3542
					CHANNELS 3 Xrotation Yrotation Zrotation
					JOINT Neck1
					{
						OFFSET	0.0000	4.3400	0.9269
						CHANNELS 3 Xrotation Yrotation Zrotation
						JOINT Head
						{
							OFFSET	0.0000	4.0266	0.8585
							CHANNELS 3 Xrotation Yrotation Zrotation
							End Site
							{
								OFFSET 0.0000 23.0297 0.1231
							}
						}
					}
				}
				JOINT LeftShoulder
				{
					OFFSET	6.1442	10.1870	-3.7932
					CHANNELS 3 Zrotation Xrotation Yrotation
					JOINT LeftArm
					{
						OFFSET	12.3191	-1.1130	-1.7935
						CHANNELS 3 Zrotation Xrotation Yrotation
						JOINT LeftForeArm
						{
							OFFSET	27.6870	0.0000	0.0000
							CHANNELS 3 Xrotation Zrotation Yrotation
							JOINT LeftHand
							{
								OFFSET	27.8738	0.0000	0.0000
								CHANNELS 3 Zrotation Yrotation Xrotation
								JOINT LeftHandThumb1
								{
									OFFSET	2.3785	-1.0029	2.6209
									CHANNELS 3 Zrotation Xrotation Yrotation
									JOINT LeftHandThumb2
									{
										OFFSET	3.3624	-1.0029	2.8398
										CHANNELS 3 Zrotation Xrotation Yrotation
										JOINT LeftHandThumb3
										{
											OFFSET	4.5018	-1.3445	2.1783
											CHANNELS 3 Zrotation Xrotation Yrotation
											End Site
											{
												OFFSET 2.6000 -1.0000 1.0000
											}
										}
									}
								}
								JOINT LeftHandMiddle1
								{
									OFFSET	10.4639	0.6148	0.4298
									CHANNELS 3 Zrotation Xrotation Yrotation
									JOINT LeftHandMiddle2
									{
										OFFSET	5.7921	0.0000	0.0000
										CHANNELS 3 Zrotation Xrotation Yrotation
										JOINT LeftHandMiddle3
										{
											OFFSET	3.7132	0.0000	0.0000
											CHANNELS 3 Zrotation Xrotation Yrotation
											End Site
											{
												OFFSET 2.3000 0.0000 0.0000
											}
										}
									}
								}
								JOINT LeftHandIndex1
								{
									OFFSET	10.3945	0.6148	2.7055
									CHANNELS 3 Zrotation Xrotation Yrotation
									JOINT LeftHandIndex2
									{
										OFFSET	5.5493	0.0000	0.0000
										CHANNELS 3 Zrotation Xrotation Yrotation
										JOINT LeftHandIndex3
										{
											OFFSET	3.3911	0.0000	0.0000
											CHANNELS 3 Zrotation Xrotation Yrotation
											End Site
											{
												OFFSET 2.5000 0.0000 0.0000
											}
										}
									}
								}
								JOINT LeftHandRing1
								{
									OFFSET	10.3252	0.3211	-1.8755
									CHANNELS 3 Zrotation Xrotation Yrotation
									JOINT LeftHandRing2
									{
										OFFSET	5.4452	0.0000	0.0000
										CHANNELS 3 Zrotation Xrotation Yrotation
										JOINT LeftHandRing3
										{
											OFFSET	3.7132	0.0000	0.0000
											CHANNELS 3 Zrotation Xrotation Yrotation
											End Site
											{
												OFFSET 2.0000 0.0000 0.0000
											}
										}
									}
								}
								JOINT LeftHandPinky1
								{
									OFFSET	10.0130	-0.0783	-3.9671
									CHANNELS 3 Zrotation Xrotation Yrotation
									JOINT LeftHandPinky2
									{
										OFFSET	3.6763	0.0000	0.0000
										CHANNELS 3 Zrotation Xrotation Yrotation
										JOINT LeftHandPinky3
										{
											OFFSET	2.8113	0.0000	0.0000
											CHANNELS 3 Zrotation Xrotation Yrotation
											End Site
											{
												OFFSET 2.9000 0.0000 0.0000
											}
										}
									}
								}
							}
						}
					}
				}
				JOINT RightShoulder
				{
					OFFSET	-6.1402	10.1870	-3.7932
					CHANNELS 3 Zrotation Xrotation Yrotation
					JOINT RightArm
					{
						OFFSET	-12.3231	-1.1130	-1.7935
						CHANNELS 3 Zrotation Xrotation Yrotation
						JOINT RightForeArm
						{
							OFFSET	-27.6870	0.0000	0.0000
							CHANNELS 3 Xrotation Zrotation Yrotation
							JOINT RightHand
							{
								OFFSET	-27.8738	0.0000	0.0000
								CHANNELS 3 Zrotation Yrotation Xrotation
								JOINT RightHandThumb1
								{
									OFFSET	-2.5178	-0.9367	2.5137
									CHANNELS 3 Zrotation Xrotation Yrotation
									JOINT RightHandThumb2
									{
										OFFSET	-3.2638	-1.0870	2.9669
										CHANNELS 3 Zrotation Xrotation Yrotation
										JOINT RightHandThumb3
										{
											OFFSET	-4.4165	-1.3703	2.1350
											CHANNELS 3 Zrotation Xrotation Yrotation
											End Site
											{
												OFFSET -2.6000 -1.0000 1.0000
											}
										}
									}
								}
								JOINT RightHandIndex1
								{
									OFFSET	-10.4665	0.4896	2.7120
									CHANNELS 3 Zrotation Xrotation Yrotation
									JOINT RightHandIndex2
									{
										OFFSET	-5.3768	0.0000	0.0000
										CHANNELS 3 Zrotation Xrotation Yrotation
										JOINT RightHandIndex3
										{
											OFFSET	-3.3855	0.0000	0.0000
											CHANNELS 3 Zrotation Xrotation Yrotation
											End Site
											{
												OFFSET -2.6000 0.0000 0.0000
											}
										}
									}
								}
								JOINT RightHandMiddle1
								{
									OFFSET	-10.7596	0.4896	0.4278
									CHANNELS 3 Zrotation Xrotation Yrotation
									JOINT RightHandMiddle2
									{
										OFFSET	-5.6168	0.0000	0.0000
										CHANNELS 3 Zrotation Xrotation Yrotation
										JOINT RightHandMiddle3
										{
											OFFSET	-3.7364	0.0000	0.0000
											CHANNELS 3 Zrotation Xrotation Yrotation
											End Site
											{
												OFFSET -2.3000 0.0000 0.0000
											}
										}
									}
								}
								JOINT RightHandRing1
								{
									OFFSET	-10.4702	0.3879	-1.9363
									CHANNELS 3 Zrotation Xrotation Yrotation
									JOINT RightHandRing2
									{
										OFFSET	-5.4013	0.0000	0.0000
										CHANNELS 3 Zrotation Xrotation Yrotation
										JOINT RightHandRing3
										{
											OFFSET	-3.3916	0.0000	0.0000
											CHANNELS 3 Zrotation Xrotation Yrotation
											End Site
											{
												OFFSET -2.2000 0.0000 0.0000
											}
										}
									}
								}
								JOINT RightHandPinky1
								{
									OFFSET	-9.9715	-0.1191	-3.9540
									CHANNELS 3 Zrotation Xrotation Yrotation
									JOINT RightHandPinky2
									{
										OFFSET	-3.6528	0.0000	0.0000
										CHANNELS 3 Zrotation Xrotation Yrotation
										JOINT RightHandPinky3
										{
											OFFSET	-2.7820	0.0000	0.0000
											CHANNELS 3 Zrotation Xrotation Yrotation
											End Site
											{
												OFFSET -2.9000 0.0000 0.0000
											}
										}
									}
								}
							}
						}
					}
				}
			}
		}
	}
	JOINT LeftUpLeg
	{
		OFFSET	9.6338	-3.2733	0.0000
		CHANNELS 3 Xrotation Yrotation Zrotation
		JOINT LeftLeg
		{
			OFFSET	0.0000	-41.7300	-1.7300
			CHANNELS 3 Xrotation Yrotation Zrotation
			JOINT LeftFoot
			{
				OFFSET	0.0126	-39.1900	-0.8477
				CHANNELS 3 Xrotation Yrotation Zrotation
				JOINT LeftToeBase
				{
					OFFSET	-0.1833	-12.1931	8.2823
					CHANNELS 3 Xrotation Yrotation Zrotation
					End Site
					{
						OFFSET 0.0000 0.0000 10.1681
					}
				}
			}
		}
	}
	JOINT RightUpLeg
	{
		OFFSET	-9.6338	-3.2733	0.0000
		CHANNELS 3 Xrotation Yrotation Zrotation
		JOINT RightLeg
		{
			OFFSET	0.0000	-41.7300	-1.7300
			CHANNELS 3 Xrotation Yrotation Zrotation
			JOINT RightFoot
			{
				OFFSET	0.0126	-39.1900	-0.8477
				CHANNELS 3 Xrotation Yrotation Zrotation
				JOINT RightToeBase
				{
					OFFSET	-0.1833	-12.1931	8.2823
					CHANNELS 3 Xrotation Yrotation Zrotation
					End Site
					{
						OFFSET 0.0032 0.0000 10.1681
					}
				}
			}
		}
	}
}
MOTION
Frames: 4
Frame Time: 0.0333333
0.0057 92.4474 0.0135 2.1823 -1.9891 -3.7408 3.2599 2.0713 3.2440 1.8164 0.2804 0.1359 1.8169 0.2757 0.1431 -0.4163 0.3717 -0.1794 -0.0000 0.0000 -0.0000 -4.4743 -5.4510 0.4008 -7.2657 1.6855 -3.3131 -69.8003 21.8083 -9.2261 -0.0000 0.0000 -9.2280 12.8296 9.0745 -19.5994 4.2097 10.7347 6.7566 0.3461 -3.9509 14.2206 3.2656 -1.2193 11.5793 -22.8227 -1.1912 1.9197 -22.3620 -0.3095 0.7032 2.9944 0.0105 0.2834 -16.3701 -0.6945 -3.9669 -21.2407 -0.2612 0.7056 4.0296 -0.0190 -0.2043 -30.1053 -1.5901 4.9494 -18.5370 0.0804 0.2953 -1.9944 0.0619 -0.0143 -34.1502 -3.1665 7.0027 -18.5134 -0.0924 -0.2351 0.9498 0.0003 0.8562 9.0221 1.9737 4.5686 66.1936 14.9926 6.5032 0.0000 0.0000 16.2402 -12.0245 3.5374 -8.1157 2.1057 6.6744 -16.8378 -6.2638 -5.6725 0.4422 -2.3313 -1.0925 -11.8514 14.7962 -0.8480 1.7475 21.2292 -0.3428 -1.1407 8.8777 -0.0854 1.0451 24.4179 -1.3877 -2.5207 22.3659 -0.4001 -1.1604 9.9264 -0.0397 -0.2967 29.9593 -1.8057 -6.4492 18.5456 0.0181 -0.6774 9.6096 0.0403 1.6672 32.4757 -3.7172 -11.2132 18.5063 -0.1544 -0.1462 9.7143 -0.2611 1.9925 -36.5391 -0.4566 2.9595 65.7476 8.2839 0.2882 2.0224 0.4589 5.9123 -2.8103 0.0000 -0.0000 -14.7799 -8.2936 5.3542 33.2810 7.0099 0.2108 -15.5032 0.6108 -5.9189 -5.1573 0.0000 -0.0000 
0.2604 92.4707 4.5639 0.5108 -1.6549 -3.1442 3.1839 2.6696 3.0059 1.7791 0.3581 0.0816 1.7795 0.3583 0.0900 -0.4085 0.4342 -0.3305 -0.0000 0.0000 -0.0000 -4.6825 -4.9093 0.2184 -7.5091 1.6460 -2.8869 -72.0292 20.8340 -4.8727 0.0000 0.0000 -7.3003 12.3587 9.4443 -17.8295 4.2097 10.7347 6.7566 0.3461 -3.9509 14.2206 3.2656 -1.2193 11.5793 -22.8227 -1.1912 1.9197 -22.3620 -0.3095 0.7032 2.9944 0.0105 0.2834 -16.3701 -0.6945 -3.9669 -21.2407 -0.2612 0.7056 4.0296 -0.0190 -0.2043 -30.1053 -1.5901 4.9494 -18.5370 0.0804 0.2953 -1.9944 0.0619 -0.0143 -34.1502 -3.1665 7.0027 -18.5134 -0.0924 -0.2351 0.9499 0.0003 0.8562 8.4153 2.0394 5.4002 64.1606 17.2390 9.8732 0.0000 -0.0000 17.6515 -12.1384 4.1623 -9.1875 2.1058 6.6744 -16.8378 -6.2638 -5.6725 0.4422 -2.3313 -1.0925 -11.8514 14.7961 -0.8480 1.7475 21.2292 -0.3428 -1.1407 8.8777 -0.0853 1.0452 24.4179 -1.3877 -2.5207 22.3659 -0.4001 -1.1603 9.9264 -0.0397 -0.2967 29.9594 -1.8057 -6.4492 18.5455 0.0181 -0.6774 9.6096 0.0403 1.6672 32.4757 -3.7172 -11.2132 18.5063 -0.1544 -0.1462 9.7143 -0.2611 1.9925 -38.4277 -0.1134 2.1997 55.7706 8.3647 0.3565 0.5356 1.6636 4.8851 -2.6269 -0.0000 -0.0000 -11.7570 -8.8802 4.3185 32.9855 8.6976 0.2989 -18.3665 2.0355 -6.2506 -4.7250 0.0000 -0.0000 
0.5213 92.3222 9.2553 -0.9914 -1.2033 -2.7617 3.0031 3.3133 3.0320 1.6501 0.4300 0.0897 1.6501 0.4332 0.0985 -0.3838 0.4937 -0.5152 -0.0000 0.0000 -0.0000 -4.9149 -4.3851 -0.1469 -7.8100 1.6024 -2.4231 -74.0695 19.7682 -0.5107 0.0000 -0.0000 -6.4505 12.2585 9.8184 -16.4933 4.2097 10.7347 6.7566 0.3461 -3.9509 14.2206 3.2656 -1.2193 11.5793 -22.8227 -1.1912 1.9197 -22.3620 -0.3095 0.7032 2.9944 0.0105 0.2834 -16.3701 -0.6945 -3.9669 -21.2407 -0.2612 0.7056 4.0296 -0.0190 -0.2043 -30.1053 -1.5901 4.9494 -18.5370 0.0804 0.2953 -1.9944 0.0619 -0.0143 -34.1502 -3.1665 7.0027 -18.5134 -0.0924 -0.2351 0.9498 0.0003 0.8562 7.9037 2.0745 5.9805 61.9911 19.1671 13.0755 0.0000 -0.0000 19.1208 -12.4259 4.9583 -10.1195 2.1057 6.6744 -16.8378 -6.2638 -5.6725 0.4422 -2.3313 -1.0925 -11.8514 14.7961 -0.8480 1.7475 21.2292 -0.3428 -1.1408 8.8777 -0.0853 1.0452 24.4178 -1.3877 -2.5207 22.3659 -0.4001 -1.1604 9.9264 -0.0397 -0.2967 29.9593 -1.8057 -6.4492 18.5456 0.0181 -0.6774 9.6097 0.0403 1.6672 32.4757 -3.7172 -11.2132 18.5063 -0.1544 -0.1462 9.7143 -0.2611 1.9925 -39.0056 0.0930 1.9875 43.0253 7.9408 0.3900 0.4213 1.9804 3.6220 -2.9721 0.0000 -0.0000 -8.4810 -9.3980 3.3614 32.0609 9.3184 0.4177 -21.0360 4.2010 -6.0253 -4.5025 0.0000 -0.0000 
0.7858 91.9758 14.0683 -2.3760 -0.7489 -2.7346 2.8051 4.0007 3.3536 1.5040 0.5006 0.1581 1.5035 0.5048 0.1671 -0.3908 0.5450 -0.7083 -0.0000 0.0000 -0.0000 -5.3119 -3.9099 -0.6712 -8.1057 1.5525 -1.9283 -75.9667 18.4637 3.6776 0.0000 0.0000 -6.2892 12.2918 9.7588 -15.5667 4.2097 10.7347 6.7566 0.3461 -3.9509 14.2206 3.2656 -1.2193 11.5793 -22.8227 -1.1912 1.9197 -22.3620 -0.3095 0.7032 2.9945 0.0105 0.2834 -16.3701 -0.6945 -3.9669 -21.2407 -0.2612 0.7056 4.0296 -0.0190 -0.2043 -30.1053 -1.5901 4.9494 -18.5370 0.0804 0.2953 -1.9944 0.0619 -0.0143 -34.1502 -3.1665 7.0027 -18.5134 -0.0924 -0.2351 0.9499 0.0003 0.8562 7.5587 2.0908 6.3389 59.7700 20.5150 15.8909 -0.0000 0.0000 20.7088 -12.8804 5.8730 -10.7169 2.1057 6.6745 -16.8378 -6.2638 -5.6725 0.4422 -2.3313 -1.0925 -11.8514 14.7961 -0.8479 1.7474 21.2292 -0.3428 -1.1407 8.8777 -0.0854 1.0452 24.4178 -1.3877 -2.5207 22.3659 -0.4001 -1.1603 9.9264 -0.0397 -0.2967 29.9593 -1.8057 -6.4492 18.5455 0.0181 -0.6774 9.6097 0.0403 1.6672 32.4757 -3.7172 -11.2132 18.5063 -0.1544 -0.1462 9.7143 -0.2611 1.9925 -38.6263 0.3330 2.3652 29.0251 7.5185 0.3805 0.2368 1.5181 1.9758 -3.3228 0.0000 -0.0000 -4.7355 -9.8844 2.6776 30.3289 9.3088 0.5557 -23.4415 6.6977 -5.2833 -3.4792 0.0000 -0.0000 
